<svg width="1603" height="974" viewBox="0 0 1603 974" fill="none" xmlns="http://www.w3.org/2000/svg">
<path d="M-81.9041 -87C-15.9357 -32.9758 41.1563 34.5249 86.6281 112.258C193.607 296.893 168.211 433.226 234.827 461.016C337.767 503.948 427.095 190.227 651.593 159.913C816.252 137.655 972.833 278.84 1009.07 311.549C1150.47 439.017 1161.78 566.938 1268.4 580.073C1346.39 589.779 1373.91 525.527 1498.02 508.607C1584.41 496.831 1658.06 516.08 1707.33 534.489" stroke="#4A3AFF" stroke-opacity="0.4" stroke-width="1.5" stroke-miterlimit="10"/>
<path d="M-82.8445 -71.9233C-16.8708 -17.8827 40.2294 49.6276 85.7154 127.367C192.694 312.034 167.298 448.335 233.886 476.125C336.854 519.057 426.182 205.336 650.652 175.022C815.339 152.796 971.92 293.982 1008.16 326.658C1149.55 454.126 1160.84 582.047 1267.49 595.182C1345.47 604.888 1372.97 540.636 1497.1 523.716C1583.53 511.94 1657.14 531.189 1706.41 549.598" stroke="#4A3AFF" stroke-opacity="0.4" stroke-width="1.5" stroke-miterlimit="10"/>
<path d="M-83.7844 -56.8466C-17.8037 -2.81572 39.2979 64.6963 84.7754 142.444C191.754 327.111 166.358 463.412 232.974 491.202C335.831 534.134 425.27 220.413 649.74 190.099C814.399 167.873 970.98 309.059 1007.22 341.734C1148.61 469.235 1159.93 597.124 1266.55 610.259C1344.53 619.965 1372.06 555.681 1496.16 538.76C1582.59 526.984 1656.2 546.234 1705.47 564.642" stroke="#4A3AFF" stroke-opacity="0.4" stroke-width="1.5" stroke-miterlimit="10"/>
<path d="M-84.6702 -41.7699C-18.704 12.2834 38.3869 79.8047 83.862 157.553C190.841 342.22 165.445 478.521 232.033 506.311C335 549.243 424.329 235.522 648.799 205.208C813.486 182.982 970.067 324.168 1006.31 356.843C1147.7 484.344 1158.99 612.233 1265.63 625.368C1343.62 635.074 1371.12 570.79 1495.25 553.869C1581.67 542.093 1655.29 561.343 1704.56 579.751" stroke="#4A3AFF" stroke-opacity="0.4" stroke-width="1.5" stroke-miterlimit="10"/>
<path d="M-85.6388 -26.6936C-19.6651 27.347 37.4351 94.8574 82.921 172.597C189.927 357.264 164.504 493.597 231.12 521.355C334.059 564.287 423.416 250.566 647.886 220.252C812.572 198.026 969.126 339.211 1005.39 371.887C1146.76 499.388 1158.07 627.277 1264.69 640.412C1342.68 650.118 1370.21 585.833 1494.31 568.913C1580.73 557.137 1654.35 576.419 1703.62 594.795" stroke="#4A3AFF" stroke-opacity="0.4" stroke-width="1.5" stroke-miterlimit="10"/>
<path d="M-86.5504 -11.6169C-20.583 42.4324 36.516 109.941 82.0094 187.674C188.988 372.341 163.592 508.674 230.181 536.432C333.065 579.363 422.477 265.643 646.974 235.199C811.633 212.973 968.214 354.159 1004.45 386.835C1145.85 514.335 1157.14 642.224 1263.78 655.359C1341.77 665.065 1369.27 600.781 1493.4 583.86C1579.82 572.084 1653.44 591.366 1702.73 609.742" stroke="#4A3AFF" stroke-opacity="0.4" stroke-width="1.5" stroke-miterlimit="10"/>
<path d="M-87.438 3.4917C-21.4722 57.5478 35.6107 125.082 81.0665 202.847C188.073 387.514 162.649 523.847 229.265 551.605C332.205 594.569 421.561 280.848 646.031 250.534C810.718 228.276 967.271 369.462 1003.54 402.137C1144.91 529.638 1156.22 657.527 1262.84 670.662C1340.83 680.368 1368.35 616.083 1492.45 599.163C1578.88 587.419 1652.49 606.669 1701.76 625.045" stroke="#4A3AFF" stroke-opacity="0.4" stroke-width="1.5" stroke-miterlimit="10"/>
<path d="M-88.405 18.4355C-22.4243 72.4664 34.6773 139.978 80.1548 217.726C187.133 402.361 161.737 538.694 228.326 566.484C331.293 609.416 420.622 295.695 645.119 265.381C809.778 243.123 966.36 384.308 1002.6 417.016C1143.99 544.485 1155.28 672.374 1261.93 685.541C1339.91 695.247 1367.44 630.963 1491.54 614.075C1577.94 602.298 1651.55 621.548 1700.85 639.957" stroke="#4A3AFF" stroke-opacity="0.4" stroke-width="1.5" stroke-miterlimit="10"/>
<path d="M-89.3463 33.6389C-23.3631 87.6771 33.7466 155.188 79.2412 232.929C186.22 417.564 160.796 553.897 227.412 581.688C330.297 624.619 419.708 310.899 644.178 280.487C808.865 258.229 965.418 399.415 1001.69 432.123C1143.05 559.591 1154.37 687.512 1260.99 700.647C1338.97 710.353 1366.5 646.101 1490.6 629.181C1577.03 617.405 1650.64 636.655 1699.91 655.063" stroke="#4A3AFF" stroke-opacity="0.4" stroke-width="1.5" stroke-miterlimit="10"/>
<path d="M-90.2039 48.7156C-24.2402 102.801 32.8416 170.355 78.3007 248.135C185.279 432.803 159.883 569.103 226.499 596.894C329.439 639.825 418.768 326.105 643.265 295.791C807.924 273.532 964.505 414.718 1000.75 447.426C1142.14 574.894 1153.43 702.815 1260.07 715.951C1338.06 725.656 1365.59 661.404 1489.69 644.484C1576.08 632.708 1649.7 651.958 1699 670.366" stroke="#4A3AFF" stroke-opacity="0.4" stroke-width="1.5" stroke-miterlimit="10"/>
<path d="M-91.1713 63.7291C-25.2038 117.778 31.8952 185.287 77.3886 263.02C184.367 447.687 158.971 583.987 225.56 611.778C328.499 654.71 417.856 340.989 642.325 310.675C807.012 288.449 963.566 429.634 999.834 462.31C1141.2 589.778 1152.51 717.7 1259.16 730.835C1337.12 740.54 1364.65 676.289 1488.78 659.368C1575.2 647.592 1648.82 666.842 1698.09 685.25" stroke="#4A3AFF" stroke-opacity="0.4" stroke-width="1.5" stroke-miterlimit="10"/>
<path d="M-92.1138 78.8689C-26.1401 132.91 30.9602 200.42 76.4461 278.159C183.425 462.827 158.029 599.127 224.645 626.918C327.584 669.849 416.913 356.129 641.411 325.814C806.07 303.588 962.651 444.774 998.891 477.45C1140.28 604.95 1151.57 732.839 1258.22 745.974C1336.2 755.68 1363.73 691.396 1487.83 674.476C1574.23 662.699 1647.85 681.949 1697.14 700.358" stroke="#4A3AFF" stroke-opacity="0.4" stroke-width="1.5" stroke-miterlimit="10"/>
<path d="M-92.9702 93.9457C-27.009 148.004 30.0887 215.511 75.5896 293.236C182.568 477.903 157.172 614.204 223.761 641.995C326.645 684.894 416.057 371.076 640.471 340.891C805.158 318.665 961.711 459.851 997.98 492.527C1139.35 620.027 1150.66 747.916 1257.31 761.051C1335.27 770.757 1362.79 706.473 1486.92 689.552C1573.35 677.776 1646.96 697.058 1696.23 715.434" stroke="#4A3AFF" stroke-opacity="0.4" stroke-width="1.5" stroke-miterlimit="10"/>
<path d="M-93.9669 109.022C-27.9932 163.063 29.107 230.573 74.5929 308.313C181.572 492.98 156.176 629.313 222.792 657.071C325.731 700.003 415.06 386.282 639.558 355.968C804.217 333.742 960.798 474.927 997.011 507.603C1138.4 635.104 1149.69 762.993 1256.34 776.128C1334.32 785.834 1361.85 721.549 1485.95 704.629C1572.35 692.853 1645.96 712.135 1695.26 730.511" stroke="#4A3AFF" stroke-opacity="0.4" stroke-width="1.5" stroke-miterlimit="10"/>
<path d="M-94.88 124.099C-28.9126 178.148 28.1864 245.657 73.6798 323.39C180.658 508.057 155.262 644.39 221.851 672.148C324.763 715.08 414.147 401.359 638.617 371.077C803.304 348.851 959.857 490.037 996.125 522.712C1137.49 650.213 1148.81 778.102 1255.45 791.237C1333.41 800.943 1360.94 736.659 1485.07 719.738C1571.49 707.994 1645.11 727.244 1694.38 745.62" stroke="#4A3AFF" stroke-opacity="0.4" stroke-width="1.5" stroke-miterlimit="10"/>
<path d="M-95.7365 139.207C-29.7498 193.23 27.353 260.743 72.8234 338.498C179.802 523.133 154.406 659.465 221.022 687.224C323.879 730.188 413.29 416.37 637.705 386.153C802.364 363.894 958.945 505.08 995.186 537.756C1136.58 665.257 1147.87 793.145 1254.51 806.28C1332.5 815.986 1360.03 751.702 1484.13 734.782C1570.52 723.038 1644.14 742.288 1693.44 760.664" stroke="#4A3AFF" stroke-opacity="0.4" stroke-width="1.5" stroke-miterlimit="10"/>
<path d="M-96.7332 154.316C-30.7524 208.346 26.3492 275.858 71.8267 353.606C178.805 538.241 153.409 674.574 219.998 702.364C322.937 745.296 412.294 431.575 636.763 401.261C801.45 379.003 958.004 520.188 994.272 552.897C1135.64 680.365 1146.95 808.286 1253.6 821.421C1331.59 831.127 1359.08 766.875 1483.21 749.955C1569.64 738.178 1643.25 757.428 1692.52 775.837" stroke="#4A3AFF" stroke-opacity="0.4" stroke-width="1.5" stroke-miterlimit="10"/>
<path d="M-97.6746 169.361C-31.6938 223.392 25.4078 290.904 70.8853 368.651C177.864 553.286 152.468 689.619 219.084 717.41C321.996 760.341 411.352 446.62 635.85 416.371C800.509 394.113 957.09 535.298 993.331 568.006C1134.72 695.475 1146.01 823.396 1252.66 836.531C1330.64 846.237 1358.17 781.985 1482.27 765.065C1568.67 753.288 1642.28 772.538 1691.58 790.947" stroke="#4A3AFF" stroke-opacity="0.4" stroke-width="1.5" stroke-miterlimit="10"/>
<path d="M-98.5039 184.438C-32.5302 238.478 24.57 305.988 70.0559 383.728C177.035 568.395 151.639 704.696 218.227 732.486C321.084 775.483 410.523 461.665 634.91 431.383C799.597 409.157 956.178 550.343 992.418 583.018C1133.78 710.487 1145.1 838.408 1251.75 851.543C1329.73 861.249 1357.23 796.997 1481.36 780.077C1567.78 768.3 1641.4 787.55 1690.67 805.959" stroke="#4A3AFF" stroke-opacity="0.4" stroke-width="1.5" stroke-miterlimit="10"/>
<path d="M-99.5262 199.609C-33.5455 253.64 23.5561 321.152 69.0336 398.899C176.012 583.567 150.616 719.867 217.232 747.658C320.172 790.589 409.501 476.868 633.998 446.554C798.657 424.231 955.238 565.417 991.479 598.093C1132.87 725.593 1144.16 853.482 1250.81 866.617C1328.79 876.323 1356.32 812.039 1480.42 795.119C1566.82 783.342 1640.43 802.592 1689.73 821" stroke="#4A3AFF" stroke-opacity="0.4" stroke-width="1.5" stroke-miterlimit="10"/>
<path d="M-100.441 214.591C-34.4669 268.631 22.6334 336.142 68.1193 413.881C175.098 598.548 149.702 734.849 216.29 762.639C319.23 805.571 408.586 491.85 633.056 461.665C797.743 439.439 954.324 580.625 990.565 613.301C1131.93 740.802 1143.25 868.69 1249.89 881.825C1327.88 891.531 1355.38 827.247 1479.51 810.327C1565.93 798.55 1639.55 817.8 1688.82 836.209" stroke="#4A3AFF" stroke-opacity="0.4" stroke-width="1.5" stroke-miterlimit="10"/>
<path d="M-101.27 229.667C-35.2964 283.708 21.8038 351.218 67.2897 428.958C174.268 613.625 148.872 749.958 215.489 777.716C318.317 820.777 407.757 506.959 632.144 476.613C796.803 454.387 953.384 595.572 989.624 628.248C1131.02 755.749 1142.3 883.637 1248.95 896.773C1326.94 906.478 1354.46 842.194 1478.57 825.274C1564.96 813.498 1638.61 832.78 1687.88 851.156" stroke="#4A3AFF" stroke-opacity="0.4" stroke-width="1.5" stroke-miterlimit="10"/>
<path d="M-102.292 244.902C-36.3249 298.952 20.7741 366.461 66.2675 444.193C173.246 628.86 147.85 765.193 214.439 792.951C317.378 835.883 406.735 522.162 631.204 491.848C795.891 469.46 952.472 610.646 988.713 643.322C1130.11 770.822 1141.39 898.711 1248.04 911.846C1326.03 921.552 1353.52 857.268 1477.66 840.347C1564.08 828.571 1637.69 847.853 1686.97 866.229" stroke="#4A3AFF" stroke-opacity="0.4" stroke-width="1.5" stroke-miterlimit="10"/>
<path d="M-103.234 259.852C-37.2556 313.873 19.8459 381.374 65.326 459.11C172.305 643.778 146.909 780.11 213.525 807.869C316.464 850.833 405.793 537.112 630.291 506.765C794.95 484.539 951.531 625.725 987.771 658.401C1129.16 785.901 1140.48 913.79 1247.1 926.925C1325.08 936.631 1352.61 872.347 1476.71 855.427C1563.11 843.683 1636.75 862.932 1686.02 881.308" stroke="#4A3AFF" stroke-opacity="0.4" stroke-width="1.5" stroke-miterlimit="10"/>
<path d="M-104.036 274.923C-38.0556 328.954 19.046 396.466 64.5235 474.213C171.502 658.848 146.106 795.181 212.695 822.972C315.551 866.065 404.991 552.247 629.35 521.868C794.037 499.61 950.618 640.796 986.858 673.504C1128.25 800.972 1139.54 928.861 1246.19 942.028C1324.17 951.734 1351.67 887.45 1475.8 870.562C1562.22 858.786 1635.84 878.036 1685.11 896.444" stroke="#4A3AFF" stroke-opacity="0.4" stroke-width="1.5" stroke-miterlimit="10"/>
<path d="M-105.087 290C-39.106 344.03 17.9956 411.542 63.4731 489.29C170.452 673.925 145.056 810.258 211.672 838.048C314.611 880.98 403.968 567.259 628.438 536.945C793.097 514.687 949.678 655.775 985.946 688.581C1127.31 816.049 1138.63 943.97 1245.25 957.105C1323.23 966.811 1350.76 902.559 1474.86 885.639C1561.28 873.862 1634.9 893.112 1684.17 911.521" stroke="#4A3AFF" stroke-opacity="0.4" stroke-width="1.5" stroke-miterlimit="10"/>
<path d="M-106 305.076C-40.0263 359.117 17.0739 426.627 62.5599 504.367C169.539 689.034 144.142 825.335 210.731 853.125C313.698 896.057 403.027 582.336 627.497 552.022C792.184 529.763 948.765 670.949 985.005 703.657C1126.4 831.126 1137.69 959.047 1244.33 972.182C1322.32 981.888 1349.82 917.636 1473.95 900.715C1560.37 888.939 1633.99 908.189 1683.26 926.597" stroke="#4A3AFF" stroke-opacity="0.4" stroke-width="1.5" stroke-miterlimit="10"/>
</svg>
