<svg width="1603" height="965" viewBox="0 0 1603 965" fill="none" xmlns="http://www.w3.org/2000/svg">
<path d="M-81.9041 -96C-15.9357 -41.9758 41.1563 25.5249 86.6281 103.258C193.607 287.893 168.211 424.226 234.827 452.016C337.767 494.948 427.095 181.227 651.593 150.913C816.252 128.655 972.833 269.84 1009.07 302.549C1150.47 430.017 1161.78 557.938 1268.4 571.073C1346.39 580.779 1373.91 516.527 1498.02 499.607C1584.41 487.831 1658.06 507.08 1707.33 525.489" stroke="#4A3AFF" stroke-miterlimit="10"/>
<path d="M-82.8445 -80.9233C-16.8708 -26.8827 40.2294 40.6276 85.7154 118.367C192.694 303.034 167.298 439.335 233.886 467.125C336.854 510.057 426.182 196.336 650.652 166.022C815.339 143.796 971.92 284.982 1008.16 317.658C1149.55 445.126 1160.84 573.047 1267.49 586.182C1345.47 595.888 1372.97 531.636 1497.1 514.716C1583.53 502.94 1657.14 522.189 1706.41 540.598" stroke="#4A3AFF" stroke-miterlimit="10"/>
<path d="M-83.7844 -65.8466C-17.8037 -11.8157 39.2979 55.6963 84.7754 133.444C191.754 318.111 166.358 454.412 232.974 482.202C335.831 525.134 425.27 211.413 649.74 181.099C814.399 158.873 970.98 300.059 1007.22 332.734C1148.61 460.235 1159.93 588.124 1266.55 601.259C1344.53 610.965 1372.06 546.681 1496.16 529.76C1582.59 517.984 1656.2 537.234 1705.47 555.642" stroke="#4A3AFF" stroke-miterlimit="10"/>
<path d="M-84.6702 -50.7699C-18.704 3.28335 38.3869 70.8047 83.862 148.553C190.841 333.22 165.445 469.521 232.033 497.311C335 540.243 424.329 226.522 648.799 196.208C813.486 173.982 970.067 315.168 1006.31 347.843C1147.7 475.344 1158.99 603.233 1265.63 616.368C1343.62 626.074 1371.12 561.79 1495.25 544.869C1581.67 533.093 1655.29 552.343 1704.56 570.751" stroke="#4A3AFF" stroke-miterlimit="10"/>
<path d="M-85.6388 -35.6936C-19.6651 18.347 37.4351 85.8574 82.921 163.597C189.927 348.264 164.504 484.597 231.12 512.355C334.059 555.287 423.416 241.566 647.886 211.252C812.572 189.026 969.126 330.211 1005.39 362.887C1146.76 490.388 1158.07 618.277 1264.69 631.412C1342.68 641.118 1370.21 576.833 1494.31 559.913C1580.73 548.137 1654.35 567.419 1703.62 585.795" stroke="#4A3AFF" stroke-miterlimit="10"/>
<path d="M-86.5504 -20.6169C-20.583 33.4324 36.516 100.941 82.0094 178.674C188.988 363.341 163.592 499.674 230.181 527.432C333.065 570.363 422.477 256.643 646.974 226.199C811.633 203.973 968.214 345.159 1004.45 377.835C1145.85 505.335 1157.14 633.224 1263.78 646.359C1341.77 656.065 1369.27 591.781 1493.4 574.86C1579.82 563.084 1653.44 582.366 1702.73 600.742" stroke="#4A3AFF" stroke-miterlimit="10"/>
<path d="M-87.438 -5.5083C-21.4722 48.5478 35.6107 116.082 81.0665 193.847C188.073 378.514 162.649 514.847 229.265 542.605C332.205 585.569 421.561 271.848 646.031 241.534C810.718 219.276 967.271 360.462 1003.54 393.137C1144.91 520.638 1156.22 648.527 1262.84 661.662C1340.83 671.368 1368.35 607.083 1492.45 590.163C1578.88 578.419 1652.49 597.669 1701.76 616.045" stroke="#4A3AFF" stroke-miterlimit="10"/>
<path d="M-88.405 9.43555C-22.4243 63.4664 34.6773 130.978 80.1548 208.726C187.133 393.361 161.737 529.694 228.326 557.484C331.293 600.416 420.622 286.695 645.119 256.381C809.778 234.123 966.36 375.308 1002.6 408.016C1143.99 535.485 1155.28 663.374 1261.93 676.541C1339.91 686.247 1367.44 621.963 1491.54 605.075C1577.94 593.298 1651.55 612.548 1700.85 630.957" stroke="#4A3AFF" stroke-miterlimit="10"/>
<path d="M-89.3463 24.6389C-23.3631 78.6771 33.7466 146.188 79.2412 223.929C186.22 408.564 160.796 544.897 227.412 572.688C330.297 615.619 419.708 301.899 644.178 271.487C808.865 249.229 965.418 390.415 1001.69 423.123C1143.05 550.591 1154.37 678.512 1260.99 691.647C1338.97 701.353 1366.5 637.101 1490.6 620.181C1577.03 608.405 1650.64 627.655 1699.91 646.063" stroke="#4A3AFF" stroke-miterlimit="10"/>
<path d="M-90.2039 39.7156C-24.2402 93.8007 32.8416 161.355 78.3007 239.135C185.279 423.803 159.883 560.103 226.499 587.894C329.439 630.825 418.768 317.105 643.265 286.791C807.924 264.532 964.505 405.718 1000.75 438.426C1142.14 565.894 1153.43 693.815 1260.07 706.951C1338.06 716.656 1365.59 652.404 1489.69 635.484C1576.08 623.708 1649.7 642.958 1699 661.366" stroke="#4A3AFF" stroke-miterlimit="10"/>
<path d="M-91.1713 54.7291C-25.2038 108.778 31.8952 176.287 77.3886 254.02C184.367 438.687 158.971 574.987 225.56 602.778C328.499 645.71 417.856 331.989 642.325 301.675C807.012 279.449 963.566 420.634 999.834 453.31C1141.2 580.778 1152.51 708.7 1259.16 721.835C1337.12 731.54 1364.65 667.289 1488.78 650.368C1575.2 638.592 1648.82 657.842 1698.09 676.25" stroke="#4A3AFF" stroke-miterlimit="10"/>
<path d="M-92.1138 69.8689C-26.1401 123.91 30.9602 191.42 76.4461 269.159C183.425 453.827 158.029 590.127 224.645 617.918C327.584 660.849 416.913 347.129 641.411 316.814C806.07 294.588 962.651 435.774 998.891 468.45C1140.28 595.95 1151.57 723.839 1258.22 736.974C1336.2 746.68 1363.73 682.396 1487.83 665.476C1574.23 653.699 1647.85 672.949 1697.14 691.358" stroke="#4A3AFF" stroke-miterlimit="10"/>
<path d="M-92.9702 84.9457C-27.009 139.004 30.0887 206.511 75.5896 284.236C182.568 468.903 157.172 605.204 223.761 632.995C326.645 675.894 416.057 362.076 640.471 331.891C805.158 309.665 961.711 450.851 997.98 483.527C1139.35 611.027 1150.66 738.916 1257.31 752.051C1335.27 761.757 1362.79 697.473 1486.92 680.552C1573.35 668.776 1646.96 688.058 1696.23 706.434" stroke="#4A3AFF" stroke-miterlimit="10"/>
<path d="M-93.9669 100.022C-27.9932 154.063 29.107 221.573 74.5929 299.313C181.572 483.98 156.176 620.313 222.792 648.071C325.731 691.003 415.06 377.282 639.558 346.968C804.217 324.742 960.798 465.927 997.011 498.603C1138.4 626.104 1149.69 753.993 1256.34 767.128C1334.32 776.834 1361.85 712.549 1485.95 695.629C1572.35 683.853 1645.96 703.135 1695.26 721.511" stroke="#4A3AFF" stroke-miterlimit="10"/>
<path d="M-94.88 115.099C-28.9126 169.148 28.1864 236.657 73.6798 314.39C180.658 499.057 155.262 635.39 221.851 663.148C324.763 706.08 414.147 392.359 638.617 362.077C803.304 339.851 959.857 481.037 996.125 513.712C1137.49 641.213 1148.81 769.102 1255.45 782.237C1333.41 791.943 1360.94 727.659 1485.07 710.738C1571.49 698.994 1645.11 718.244 1694.38 736.62" stroke="#4A3AFF" stroke-miterlimit="10"/>
<path d="M-95.7365 130.207C-29.7498 184.23 27.353 251.743 72.8234 329.498C179.802 514.133 154.406 650.465 221.022 678.224C323.879 721.188 413.29 407.37 637.705 377.153C802.364 354.894 958.945 496.08 995.186 528.756C1136.58 656.257 1147.87 784.145 1254.51 797.28C1332.5 806.986 1360.03 742.702 1484.13 725.782C1570.52 714.038 1644.14 733.288 1693.44 751.664" stroke="#4A3AFF" stroke-miterlimit="10"/>
<path d="M-96.7332 145.316C-30.7524 199.346 26.3492 266.858 71.8267 344.606C178.805 529.241 153.409 665.574 219.998 693.364C322.937 736.296 412.294 422.575 636.763 392.261C801.45 370.003 958.004 511.188 994.272 543.897C1135.64 671.365 1146.95 799.286 1253.6 812.421C1331.59 822.127 1359.08 757.875 1483.21 740.955C1569.64 729.178 1643.25 748.428 1692.52 766.837" stroke="#4A3AFF" stroke-miterlimit="10"/>
<path d="M-97.6746 160.361C-31.6938 214.392 25.4078 281.904 70.8853 359.651C177.864 544.286 152.468 680.619 219.084 708.41C321.996 751.341 411.352 437.62 635.85 407.371C800.509 385.113 957.09 526.298 993.331 559.006C1134.72 686.475 1146.01 814.396 1252.66 827.531C1330.64 837.237 1358.17 772.985 1482.27 756.065C1568.67 744.288 1642.28 763.538 1691.58 781.947" stroke="#4A3AFF" stroke-miterlimit="10"/>
<path d="M-98.5039 175.438C-32.5302 229.478 24.57 296.988 70.0559 374.728C177.035 559.395 151.639 695.696 218.227 723.486C321.084 766.483 410.523 452.665 634.91 422.383C799.597 400.157 956.178 541.343 992.418 574.018C1133.78 701.487 1145.1 829.408 1251.75 842.543C1329.73 852.249 1357.23 787.997 1481.36 771.077C1567.78 759.3 1641.4 778.55 1690.67 796.959" stroke="#4A3AFF" stroke-miterlimit="10"/>
<path d="M-99.5262 190.609C-33.5455 244.64 23.5561 312.152 69.0336 389.899C176.012 574.567 150.616 710.867 217.232 738.658C320.172 781.589 409.501 467.868 633.998 437.554C798.657 415.231 955.238 556.417 991.479 589.093C1132.87 716.593 1144.16 844.482 1250.81 857.617C1328.79 867.323 1356.32 803.039 1480.42 786.119C1566.82 774.342 1640.43 793.592 1689.73 812" stroke="#4A3AFF" stroke-miterlimit="10"/>
<path d="M-100.441 205.591C-34.4669 259.631 22.6334 327.142 68.1193 404.881C175.098 589.548 149.702 725.849 216.29 753.639C319.23 796.571 408.586 482.85 633.056 452.665C797.743 430.439 954.324 571.625 990.565 604.301C1131.93 731.802 1143.25 859.69 1249.89 872.825C1327.88 882.531 1355.38 818.247 1479.51 801.327C1565.93 789.55 1639.55 808.8 1688.82 827.209" stroke="#4A3AFF" stroke-miterlimit="10"/>
<path d="M-101.27 220.667C-35.2964 274.708 21.8038 342.218 67.2897 419.958C174.268 604.625 148.872 740.958 215.489 768.716C318.317 811.777 407.757 497.959 632.144 467.613C796.803 445.387 953.384 586.572 989.624 619.248C1131.02 746.749 1142.3 874.637 1248.95 887.773C1326.94 897.478 1354.46 833.194 1478.57 816.274C1564.96 804.498 1638.61 823.78 1687.88 842.156" stroke="#4A3AFF" stroke-miterlimit="10"/>
<path d="M-102.292 235.902C-36.3249 289.952 20.7741 357.461 66.2675 435.193C173.246 619.86 147.85 756.193 214.439 783.951C317.378 826.883 406.735 513.162 631.204 482.848C795.891 460.46 952.472 601.646 988.713 634.322C1130.11 761.822 1141.39 889.711 1248.04 902.846C1326.03 912.552 1353.52 848.268 1477.66 831.347C1564.08 819.571 1637.69 838.853 1686.97 857.229" stroke="#4A3AFF" stroke-miterlimit="10"/>
<path d="M-103.234 250.852C-37.2556 304.873 19.8459 372.374 65.326 450.11C172.305 634.778 146.909 771.11 213.525 798.869C316.464 841.833 405.793 528.112 630.291 497.765C794.95 475.539 951.531 616.725 987.771 649.401C1129.16 776.901 1140.48 904.79 1247.1 917.925C1325.08 927.631 1352.61 863.347 1476.71 846.427C1563.11 834.683 1636.75 853.932 1686.02 872.308" stroke="#4A3AFF" stroke-miterlimit="10"/>
<path d="M-104.036 265.923C-38.0556 319.954 19.046 387.466 64.5235 465.213C171.502 649.848 146.106 786.181 212.695 813.972C315.551 857.065 404.991 543.247 629.35 512.868C794.037 490.61 950.618 631.796 986.858 664.504C1128.25 791.972 1139.54 919.861 1246.19 933.028C1324.17 942.734 1351.67 878.45 1475.8 861.562C1562.22 849.786 1635.84 869.036 1685.11 887.444" stroke="#4A3AFF" stroke-miterlimit="10"/>
<path d="M-105.087 281C-39.106 335.03 17.9956 402.542 63.4731 480.29C170.452 664.925 145.056 801.258 211.672 829.048C314.611 871.98 403.968 558.259 628.438 527.945C793.097 505.687 949.678 646.775 985.946 679.581C1127.31 807.049 1138.63 934.97 1245.25 948.105C1323.23 957.811 1350.76 893.559 1474.86 876.639C1561.28 864.862 1634.9 884.112 1684.17 902.521" stroke="#4A3AFF" stroke-miterlimit="10"/>
<path d="M-106 296.076C-40.0263 350.117 17.0739 417.627 62.5599 495.367C169.539 680.034 144.142 816.335 210.731 844.125C313.698 887.057 403.027 573.336 627.497 543.022C792.184 520.763 948.765 661.949 985.005 694.657C1126.4 822.126 1137.69 950.047 1244.33 963.182C1322.32 972.888 1349.82 908.636 1473.95 891.715C1560.37 879.939 1633.99 899.189 1683.26 917.597" stroke="#4A3AFF" stroke-miterlimit="10"/>
</svg>
